<svg width="20" height="20" viewBox="0 0 20 20" fill="none" xmlns="http://www.w3.org/2000/svg">
<path fill-rule="evenodd" clip-rule="evenodd" d="M10 3.33333C8.61929 3.33333 7.5 4.45262 7.5 5.83333C7.5 7.21404 8.61929 8.33333 10 8.33333C11.3807 8.33333 12.5 7.21404 12.5 5.83333C12.5 4.45262 11.3807 3.33333 10 3.33333ZM5.83333 5.83333C5.83333 3.53214 7.69881 1.66666 10 1.66666C12.3012 1.66666 14.1667 3.53214 14.1667 5.83333C14.1667 8.13452 12.3012 10 10 10C7.69881 10 5.83333 8.13452 5.83333 5.83333ZM3.72039 12.8871C4.50179 12.1057 5.5616 11.6667 6.66667 11.6667H13.3333C14.4384 11.6667 15.4982 12.1057 16.2796 12.8871C17.061 13.6685 17.5 14.7283 17.5 15.8333V17.5C17.5 17.9602 17.1269 18.3333 16.6667 18.3333C16.2064 18.3333 15.8333 17.9602 15.8333 17.5V15.8333C15.8333 15.1703 15.5699 14.5344 15.1011 14.0656C14.6323 13.5967 13.9964 13.3333 13.3333 13.3333H6.66667C6.00363 13.3333 5.36774 13.5967 4.8989 14.0656C4.43006 14.5344 4.16667 15.1703 4.16667 15.8333V17.5C4.16667 17.9602 3.79357 18.3333 3.33333 18.3333C2.8731 18.3333 2.5 17.9602 2.5 17.5V15.8333C2.5 14.7283 2.93899 13.6685 3.72039 12.8871Z" fill="#101828"/>
</svg>
